<svg width="19" height="18" viewBox="0 0 19 18" fill="none" xmlns="http://www.w3.org/2000/svg">
<path fill-rule="evenodd" clip-rule="evenodd" d="M5.21296 2.35674C6.33301 1.27139 7.84561 0.666992 9.4165 0.666992C10.9874 0.666992 12.5 1.27139 13.6201 2.35674C14.7412 3.44314 15.3773 4.92367 15.3773 6.4746C15.3773 10.5414 17.0238 12.4165 17.8399 13.1055C18.2179 13.4246 18.1986 13.8908 18.1206 14.1431C18.0435 14.3926 17.7799 14.8237 17.2439 14.8237H12.9893C12.8454 15.1783 12.6004 15.658 12.2048 16.1045C11.6231 16.761 10.7226 17.3337 9.4165 17.3337C8.11044 17.3337 7.20993 16.761 6.62822 16.1045C6.23259 15.658 5.9876 15.1783 5.84369 14.8237H1.58909C1.05306 14.8237 0.789551 14.3926 0.712413 14.1431C0.634378 13.8908 0.615144 13.4246 0.993081 13.1055C1.80916 12.4165 3.45572 10.5414 3.45572 6.4746C3.45572 4.92367 4.09182 3.44314 5.21296 2.35674ZM9.4165 2.11627C8.20501 2.11627 7.0492 2.58292 6.20181 3.40405C5.35551 4.22413 4.88631 5.32935 4.88631 6.4746C4.88631 9.99063 3.76517 12.1456 2.74236 13.3744H6.21352C6.62848 13.3744 6.96613 13.6562 7.07805 14.0238C7.14288 14.2367 7.3226 14.7186 7.69281 15.1364C8.04533 15.5342 8.57573 15.8844 9.4165 15.8844C10.2573 15.8844 10.7877 15.5342 11.1402 15.1364C11.5104 14.7186 11.6901 14.2367 11.755 14.0238C11.8669 13.6562 12.2045 13.3744 12.6195 13.3744H16.0906C15.0678 12.1456 13.9467 9.99063 13.9467 6.4746C13.9467 5.32935 13.4775 4.22413 12.6312 3.40405C11.7838 2.58292 10.628 2.11627 9.4165 2.11627Z" fill="white"/>
</svg>
