<svg width="18" height="12" viewBox="0 0 18 12" fill="none" xmlns="http://www.w3.org/2000/svg">
<path d="M15.9443 0.166992H2.05539C1.28873 0.166992 0.666504 0.789214 0.666504 1.55588V9.88921C0.666504 10.6559 1.28873 11.2781 2.05539 11.2781H15.9443C16.7109 11.2781 17.3332 10.6559 17.3332 9.88921V1.55588C17.3332 0.789214 16.7109 0.166992 15.9443 0.166992ZM15.9443 9.54199C15.9443 9.73366 15.7887 9.88921 15.5971 9.88921H2.40262C2.21095 9.88921 2.05539 9.73366 2.05539 9.54199V5.0281H15.9443V9.54199ZM15.9443 2.94477H2.05539V1.9031C2.05539 1.71144 2.21095 1.55588 2.40262 1.55588H15.5971C15.7887 1.55588 15.9443 1.71144 15.9443 1.9031V2.94477ZM14.5554 7.11144H12.4721V6.41699H14.5554V7.11144Z" fill="#9FA8B2"/>
</svg>
