<svg width="10" height="11" viewBox="0 0 10 11" fill="none" xmlns="http://www.w3.org/2000/svg">
<path fill-rule="evenodd" clip-rule="evenodd" d="M0.517113 5.84935C0.57517 5.79115 0.64414 5.74497 0.720071 5.71346C0.796002 5.68195 0.877404 5.66573 0.959613 5.66573C1.04182 5.66573 1.12322 5.68195 1.19916 5.71346C1.27509 5.74497 1.34406 5.79115 1.40211 5.84935L4.70961 9.1581L8.01711 5.84935C8.07522 5.79124 8.14421 5.74515 8.22013 5.7137C8.29606 5.68225 8.37743 5.66606 8.45961 5.66606C8.54179 5.66606 8.62317 5.68225 8.69909 5.7137C8.77502 5.74515 8.844 5.79124 8.90211 5.84935C8.96022 5.90746 9.00632 5.97645 9.03777 6.05237C9.06922 6.1283 9.0854 6.20967 9.0854 6.29185C9.0854 6.37403 9.06922 6.45541 9.03777 6.53133C9.00632 6.60725 8.96022 6.67624 8.90211 6.73435L5.15211 10.4844C5.09406 10.5426 5.02509 10.5887 4.94915 10.6202C4.87322 10.6518 4.79182 10.668 4.70961 10.668C4.6274 10.668 4.546 10.6518 4.47007 10.6202C4.39414 10.5887 4.32517 10.5426 4.26711 10.4844L0.517113 6.73435C0.458909 6.67629 0.41273 6.60732 0.381222 6.53139C0.349714 6.45546 0.333496 6.37406 0.333496 6.29185C0.333496 6.20964 0.349714 6.12824 0.381222 6.05231C0.41273 5.97638 0.458909 5.90741 0.517113 5.84935Z" fill="#E24545"/>
<path fill-rule="evenodd" clip-rule="evenodd" d="M4.70961 10.0419C4.54385 10.0419 4.38488 9.97601 4.26767 9.8588C4.15046 9.74159 4.08461 9.58262 4.08461 9.41686L4.08461 1.29186C4.08461 1.1261 4.15046 0.967125 4.26767 0.849915C4.38488 0.732704 4.54385 0.666857 4.70961 0.666857C4.87537 0.666857 5.03435 0.732704 5.15156 0.849915C5.26877 0.967125 5.33461 1.1261 5.33461 1.29186L5.33461 9.41686C5.33461 9.58262 5.26877 9.74159 5.15156 9.8588C5.03435 9.97601 4.87537 10.0419 4.70961 10.0419Z" fill="#E24545"/>
</svg>
