<svg width="24" height="20" viewBox="0 0 24 20" fill="none" xmlns="http://www.w3.org/2000/svg">
<path fill-rule="evenodd" clip-rule="evenodd" d="M5.29277 0.56804C5.6833 0.177515 6.31646 0.177515 6.70698 0.56804L22.707 16.568C23.0975 16.9586 23.0975 17.5917 22.707 17.9823C22.3165 18.3728 21.6833 18.3728 21.2928 17.9823L19.9573 16.6468C17.7273 18.6345 14.9875 19.8315 11.9999 19.8315C7.31434 19.8315 3.26546 16.9006 0.787936 12.5854C0.164279 11.4992 0.164275 10.1639 0.787926 9.07763C2.23709 6.55355 4.21649 4.50873 6.55191 3.24139L5.29277 1.98225C4.90225 1.59173 4.90225 0.958564 5.29277 0.56804ZM8.03983 4.72931C5.85888 5.753 3.93471 7.61354 2.52239 10.0734C2.25279 10.543 2.25279 11.12 2.52239 11.5896C4.74485 15.4605 8.21358 17.8315 11.9999 17.8315C14.3891 17.8315 16.6406 16.8928 18.5405 15.2299L15.6887 12.3782C15.6874 12.3814 15.6861 12.3845 15.6848 12.3876C15.3469 13.1878 14.7576 13.8563 14.0062 14.292C13.2547 14.7277 12.3818 14.9069 11.5195 14.8026C10.6571 14.6983 9.85218 14.3161 9.22628 13.7138C8.60038 13.1114 8.18756 12.3218 8.0502 11.4641C7.91285 10.6063 8.05843 9.72724 8.46494 8.95959C8.87145 8.19195 9.5168 7.57749 10.3034 7.2091C10.353 7.1859 10.4029 7.16376 10.4532 7.14267L8.03983 4.72931ZM12.1475 8.837C11.8068 8.81178 11.4637 8.87417 11.1517 9.02032C10.7583 9.20452 10.4357 9.51175 10.2324 9.89557C10.0292 10.2794 9.95636 10.7189 10.025 11.1478C10.0937 11.5767 10.3001 11.9715 10.6131 12.2727C10.926 12.5738 11.3285 12.7649 11.7597 12.8171C12.1909 12.8692 12.6273 12.7796 13.003 12.5618C13.3788 12.3439 13.6734 12.0097 13.8423 11.6096C13.9663 11.3159 14.0177 10.9985 13.9944 10.6839L12.1475 8.837ZM14.3748 3.06546C14.5549 2.54335 15.1241 2.26606 15.6462 2.44612C18.768 3.52271 21.4036 5.92789 23.212 9.07754C23.687 9.90486 23.8001 10.8765 23.5517 11.7725C23.4042 12.3047 22.8531 12.6166 22.3209 12.469C21.7887 12.3215 21.4769 11.7704 21.6244 11.2382C21.7319 10.8507 21.6828 10.4308 21.4775 10.0734C19.8596 7.25537 17.5716 5.22569 14.9942 4.33684C14.4721 4.15679 14.1948 3.58757 14.3748 3.06546Z" fill="#FCFCFC"/>
</svg>
