<svg width="14" height="14" viewBox="0 0 14 14" fill="none" xmlns="http://www.w3.org/2000/svg">
<path d="M13.3073 6.13236C13.307 6.13206 13.3067 6.13175 13.3064 6.13145L7.86749 0.692708C7.63565 0.460775 7.32743 0.333008 6.99957 0.333008C6.67171 0.333008 6.36348 0.460673 6.13154 0.692607L0.695448 6.1286C0.693617 6.13043 0.691786 6.13236 0.689955 6.1342C0.213881 6.61302 0.214695 7.38989 0.692295 7.86749C0.910496 8.08579 1.19868 8.21224 1.50681 8.22546C1.51932 8.22668 1.53194 8.22729 1.54465 8.22729H1.76143V12.2299C1.76143 13.0219 2.40586 13.6663 3.19809 13.6663H5.32598C5.54164 13.6663 5.71661 13.4915 5.71661 13.2757V10.1377C5.71661 9.77627 6.01059 9.48228 6.37202 9.48228H7.62711C7.98854 9.48228 8.28253 9.77627 8.28253 10.1377V13.2757C8.28253 13.4915 8.45739 13.6663 8.67315 13.6663H10.801C11.5933 13.6663 12.2377 13.0219 12.2377 12.2299V8.22729H12.4387C12.7665 8.22729 13.0747 8.09963 13.3067 7.8677C13.7848 7.38928 13.785 6.61108 13.3073 6.13236Z" fill="url(#paint0_linear_6257_3000)"/>
<defs>
<linearGradient id="paint0_linear_6257_3000" x1="0.333496" y1="0.333008" x2="15.4044" y2="5.31187" gradientUnits="userSpaceOnUse">
<stop offset="0.0987302" stop-color="#94D5FF"/>
<stop offset="0.50868" stop-color="#0CF8E9"/>
<stop offset="1" stop-color="#AD80FF"/>
</linearGradient>
</defs>
</svg>
