<svg width="39" height="39" viewBox="0 0 39 39" fill="none" xmlns="http://www.w3.org/2000/svg">
<path d="M0 19.5C0 8.73045 8.73045 0 19.5 0C30.2696 0 39 8.73045 39 19.5C39 30.2696 30.2696 39 19.5 39C8.73045 39 0 30.2696 0 19.5Z" fill="#14142B"/>
<path d="M25.3395 13.6504H13.6464L7.7998 19.5004L13.6464 25.3504H25.3395L31.1998 19.5004L25.3395 13.6504Z" fill="white"/>
<path d="M31.1997 19.5004L25.3394 13.6504V25.3504L31.1997 19.5004Z" fill="#DB0011"/>
<path d="M19.493 19.5004L25.3396 13.6504H13.6465L19.493 19.5004Z" fill="#DB0011"/>
<path d="M7.7998 19.5004L13.6464 25.3504V13.6504L7.7998 19.5004Z" fill="#DB0011"/>
<path d="M19.493 19.5L13.6465 25.35H25.3396L19.493 19.5Z" fill="#DB0011"/>
</svg>
