<svg width="45" height="45" viewBox="0 0 45 45" fill="none" xmlns="http://www.w3.org/2000/svg">
<path d="M0 22.5C0 10.0736 10.0736 0 22.5 0C34.9264 0 45 10.0736 45 22.5C45 34.9264 34.9264 45 22.5 45C10.0736 45 0 34.9264 0 22.5Z" fill="#14142B"/>
<path d="M21.8602 14.2291V18.0068C18.8163 18.0068 16.3489 20.4811 16.3489 23.5333C16.3489 26.5856 18.8163 29.0598 21.8602 29.0598C24.9041 29.0598 27.3715 26.5856 27.3715 23.5333C27.3715 23.4175 27.3667 23.3034 27.3597 23.1893H30.7956L30.9704 23.3645C30.9704 28.4102 26.8913 32.5 21.8602 32.5C16.8285 32.5 12.75 28.4102 12.75 23.3645C12.75 18.3189 16.8285 14.2291 21.8602 14.2291ZM23.2127 10.5L33.75 16.3782L23.2127 22.2565V10.5Z" fill="white"/>
</svg>
