<svg width="39" height="39" viewBox="0 0 39 39" fill="none" xmlns="http://www.w3.org/2000/svg">
<path d="M0 19.5C0 8.73045 8.73045 0 19.5 0C30.2696 0 39 8.73045 39 19.5C39 30.2696 30.2696 39 19.5 39C8.73045 39 0 30.2696 0 19.5Z" fill="#14142B"/>
<path d="M18.9453 12.3315V15.6055C16.3073 15.6055 14.1689 17.7499 14.1689 20.3952C14.1689 23.0404 16.3073 25.1848 18.9453 25.1848C21.5833 25.1848 23.7218 23.0404 23.7218 20.3952C23.7218 20.2948 23.7176 20.1959 23.7115 20.097H26.6894L26.8408 20.2489C26.8408 24.6218 23.3056 28.1663 18.9453 28.1663C14.5845 28.1663 11.0498 24.6218 11.0498 20.2489C11.0498 15.876 14.5845 12.3315 18.9453 12.3315ZM20.1175 9.09961L29.2498 14.1941L20.1175 19.2885V9.09961Z" fill="white"/>
</svg>
