<svg width="39" height="39" viewBox="0 0 39 39" fill="none" xmlns="http://www.w3.org/2000/svg">
<path d="M0 19.5C0 8.73045 8.73045 0 19.5 0V0C30.2696 0 39 8.73045 39 19.5V19.5C39 30.2696 30.2696 39 19.5 39V39C8.73045 39 0 30.2696 0 19.5V19.5Z" fill="#14142B"/>
<path d="M24.4129 16.1545C24.5921 14.9861 24.4129 14.2071 23.7856 13.4881C23.0987 12.6792 21.8442 12.3496 20.2313 12.3496H15.6018C15.2732 12.3496 15.0044 12.5893 14.9447 12.9188L13.0033 25.2024C12.9734 25.4421 13.1526 25.6518 13.3915 25.6518H16.2589L16.0498 26.9101C16.0199 27.1198 16.1693 27.2996 16.4082 27.2996H18.8275C19.1262 27.2996 19.3652 27.0899 19.395 26.8202L19.9028 23.6445C19.9327 23.3749 20.2015 23.1651 20.4703 23.1651H20.8287C23.1584 23.1651 25.0102 22.2064 25.5479 19.4501C25.7569 18.3116 25.6673 17.323 25.07 16.6638C24.8908 16.4541 24.6817 16.3043 24.4129 16.1545" fill="#009CDE"/>
<path d="M24.4129 16.1545C24.5921 14.9861 24.4129 14.2071 23.7856 13.4881C23.0987 12.6792 21.8442 12.3496 20.2313 12.3496H15.6018C15.2732 12.3496 15.0044 12.5893 14.9447 12.9188L13.0033 25.2024C12.9734 25.4421 13.1526 25.6518 13.3915 25.6518H16.2589L16.9458 21.2177C17.0056 20.8882 17.2744 20.6485 17.6029 20.6485H18.9769C21.665 20.6485 23.7558 19.5699 24.3531 16.3942C24.383 16.3343 24.383 16.2444 24.4129 16.1545Z" fill="#012169"/>
<path d="M17.7523 16.1845C17.7822 15.9748 18.051 15.7051 18.3198 15.7051H21.9637C22.3818 15.7051 22.8 15.7351 23.1584 15.795C23.487 15.8549 24.0843 16.0047 24.383 16.1845C24.5622 15.016 24.383 14.2371 23.7558 13.518C23.0987 12.6792 21.8442 12.3496 20.2313 12.3496H15.6018C15.2732 12.3496 15.0044 12.5893 14.9447 12.9188L13.0033 25.2024C12.9734 25.4421 13.1526 25.6518 13.3915 25.6518H16.2589L17.7523 16.1845V16.1845Z" fill="#003087"/>
</svg>
