<svg width="12" height="12" viewBox="0 0 12 12" fill="none" xmlns="http://www.w3.org/2000/svg">
<path fill-rule="evenodd" clip-rule="evenodd" d="M5.99984 0.166992C6.322 0.166992 6.58317 0.428159 6.58317 0.750326V5.41699H11.2498C11.572 5.41699 11.8332 5.67816 11.8332 6.00033C11.8332 6.32249 11.572 6.58366 11.2498 6.58366H6.58317V11.2503C6.58317 11.5725 6.322 11.8337 5.99984 11.8337C5.67767 11.8337 5.4165 11.5725 5.4165 11.2503V6.58366H0.749837C0.427671 6.58366 0.166504 6.32249 0.166504 6.00033C0.166504 5.67816 0.427671 5.41699 0.749837 5.41699H5.4165V0.750326C5.4165 0.428159 5.67767 0.166992 5.99984 0.166992Z" fill="white"/>
</svg>
