<svg width="10" height="11" viewBox="0 0 10 11" fill="none" xmlns="http://www.w3.org/2000/svg">
<path fill-rule="evenodd" clip-rule="evenodd" d="M5.86209 0.945261C6.12244 0.684913 6.54454 0.684913 6.80489 0.945261L9.47155 3.61192C9.66221 3.80258 9.71925 4.08932 9.61606 4.33844C9.51288 4.58755 9.26979 4.74998 9.00015 4.74998H1.00018C0.631991 4.74998 0.333516 4.45151 0.333516 4.08332C0.333516 3.71513 0.631991 3.41666 1.00018 3.41666H7.39068L5.86209 1.88807C5.60174 1.62772 5.60174 1.20561 5.86209 0.945261ZM0.384262 7.38376C0.487449 7.13465 0.730539 6.97222 1.00018 6.97222H9.00015C9.36833 6.97222 9.66681 7.2707 9.66681 7.63889C9.66681 8.00707 9.36833 8.30555 9.00015 8.30555H2.60965L4.13824 9.83414C4.39859 10.0945 4.39859 10.5166 4.13824 10.7769C3.87789 11.0373 3.45578 11.0373 3.19543 10.7769L0.528777 8.11029C0.338112 7.91962 0.281075 7.63288 0.384262 7.38376Z" fill="white"/>
</svg>
