<svg width="18" height="16" viewBox="0 0 18 16" fill="none" xmlns="http://www.w3.org/2000/svg">
<path fill-rule="evenodd" clip-rule="evenodd" d="M5.48459 0.683596C5.54278 0.741647 5.58896 0.810609 5.62046 0.886532C5.65197 0.962455 5.66818 1.04385 5.66818 1.12605C5.66818 1.20825 5.65197 1.28964 5.62046 1.36556C5.58896 1.44149 5.54278 1.51045 5.48459 1.5685L2.1762 4.87563L5.48459 8.18276C5.54269 8.24087 5.58878 8.30985 5.62023 8.38576C5.65167 8.46168 5.66785 8.54304 5.66785 8.62521C5.66785 8.70739 5.65167 8.78875 5.62023 8.86467C5.58878 8.94058 5.54269 9.00956 5.48459 9.06767C5.42648 9.12577 5.3575 9.17186 5.28159 9.2033C5.20567 9.23475 5.12431 9.25093 5.04214 9.25093C4.95996 9.25093 4.8786 9.23475 4.80268 9.2033C4.72677 9.17186 4.65779 9.12577 4.59968 9.06767L0.850101 5.31808C0.791903 5.26003 0.745729 5.19107 0.714225 5.11515C0.68272 5.03922 0.666504 4.95783 0.666504 4.87563C0.666504 4.79343 0.68272 4.71204 0.714225 4.63612C0.745729 4.56019 0.791903 4.49123 0.850101 4.43318L4.59968 0.683596C4.65773 0.625399 4.7267 0.579225 4.80262 0.547721C4.87854 0.516216 4.95994 0.5 5.04214 0.5C5.12434 0.5 5.20573 0.516216 5.28165 0.547721C5.35757 0.579225 5.42654 0.625399 5.48459 0.683596Z" fill="#9FA8B2"/>
<path fill-rule="evenodd" clip-rule="evenodd" d="M2.1762 4.87563C2.1762 4.70989 2.27861 4.77331 2.3958 4.65611C2.3958 4.65611 2.63563 4.2507 2.80137 4.2507H10.0416C10.2073 4.2507 10.3663 4.31654 10.4835 4.43374C10.6007 4.55094 10.6665 4.70989 10.6665 4.87563C10.6665 5.04137 10.6007 5.20033 10.4835 5.31753C10.3663 5.43472 10.2073 5.50056 10.0416 5.50056L2.80137 5.50056C2.63563 5.50056 2.80137 5.50056 2.47567 5.17498C2.14997 4.84941 2.1762 5.04137 2.1762 4.87563Z" fill="#9FA8B2"/>
<path fill-rule="evenodd" clip-rule="evenodd" d="M12.5151 15.7341C12.4569 15.676 12.4107 15.6071 12.3792 15.5312C12.3477 15.4552 12.3315 15.3738 12.3315 15.2916C12.3315 15.2094 12.3477 15.128 12.3792 15.0521C12.4107 14.9762 12.4569 14.9072 12.5151 14.8492L15.8235 11.5421L12.5151 8.23492C12.457 8.17682 12.4109 8.10784 12.3794 8.03192C12.348 7.95601 12.3318 7.87464 12.3318 7.79247C12.3318 7.7103 12.348 7.62893 12.3794 7.55302C12.4109 7.4771 12.457 7.40812 12.5151 7.35002C12.5732 7.29192 12.6422 7.24583 12.7181 7.21438C12.794 7.18293 12.8754 7.16675 12.9575 7.16675C13.0397 7.16675 13.1211 7.18293 13.197 7.21438C13.2729 7.24583 13.3419 7.29192 13.4 7.35002L17.1496 11.0996C17.2078 11.1577 17.2539 11.2266 17.2855 11.3025C17.317 11.3785 17.3332 11.4599 17.3332 11.5421C17.3332 11.6243 17.317 11.7056 17.2855 11.7816C17.2539 11.8575 17.2078 11.9265 17.1496 11.9845L13.4 15.7341C13.3419 15.7923 13.273 15.8385 13.1971 15.87C13.1211 15.9015 13.0397 15.9177 12.9575 15.9177C12.8753 15.9177 12.7939 15.9015 12.718 15.87C12.6421 15.8385 12.5731 15.7923 12.5151 15.7341Z" fill="#9FA8B2"/>
<path fill-rule="evenodd" clip-rule="evenodd" d="M15.8235 11.5421C15.8235 11.7078 15.7211 11.6444 15.6039 11.7616C15.6039 11.7616 15.364 12.167 15.1983 12.167H7.9581C7.79236 12.167 7.63341 12.1011 7.51621 11.9839C7.39901 11.8667 7.33317 11.7078 7.33317 11.5421C7.33317 11.3763 7.39901 11.2174 7.51621 11.1002C7.63341 10.983 7.79236 10.9171 7.9581 10.9171L15.1983 10.9171C15.364 10.9171 15.1983 10.9171 15.524 11.2427C15.8497 11.5683 15.8235 11.3763 15.8235 11.5421Z" fill="#9FA8B2"/>
</svg>
