<svg width="10" height="11" viewBox="0 0 10 11" fill="none" xmlns="http://www.w3.org/2000/svg">
<path fill-rule="evenodd" clip-rule="evenodd" d="M9.52634 5.19362C9.46829 5.25182 9.39932 5.298 9.32339 5.32951C9.24745 5.36102 9.16605 5.37723 9.08384 5.37723C9.00163 5.37723 8.92023 5.36102 8.8443 5.32951C8.76837 5.298 8.6994 5.25182 8.64134 5.19362L5.33384 1.88487L2.02634 5.19362C1.96823 5.25173 1.89925 5.29782 1.82332 5.32927C1.7474 5.36072 1.66602 5.37691 1.58384 5.37691C1.50166 5.37691 1.42029 5.36072 1.34437 5.32927C1.26844 5.29782 1.19945 5.25173 1.14134 5.19362C1.08323 5.13551 1.03714 5.06652 1.00569 4.9906C0.97424 4.91467 0.958055 4.8333 0.958055 4.75112C0.958055 4.66894 0.97424 4.58756 1.00569 4.51164C1.03714 4.43571 1.08323 4.36673 1.14134 4.30862L4.89134 0.558617C4.9494 0.500413 5.01837 0.454234 5.0943 0.422726C5.17023 0.391218 5.25164 0.375 5.33384 0.375C5.41605 0.375 5.49745 0.391218 5.57339 0.422726C5.64932 0.454234 5.71829 0.500413 5.77634 0.558617L9.52634 4.30862C9.58455 4.36667 9.63073 4.43564 9.66223 4.51158C9.69374 4.58751 9.70996 4.66891 9.70996 4.75112C9.70996 4.83333 9.69374 4.91473 9.66223 4.99066C9.63073 5.06659 9.58455 5.13556 9.52634 5.19362Z" fill="#58C38E"/>
<path fill-rule="evenodd" clip-rule="evenodd" d="M5.33384 1.00111C5.4996 1.00111 5.65857 1.06696 5.77578 1.18417C5.89299 1.30138 5.95884 1.46035 5.95884 1.62611L5.95884 9.75111C5.95884 9.91687 5.89299 10.0758 5.77578 10.1931C5.65857 10.3103 5.4996 10.3761 5.33384 10.3761C5.16808 10.3761 5.00911 10.3103 4.8919 10.1931C4.77469 10.0758 4.70884 9.91687 4.70884 9.75111L4.70884 1.62611C4.70884 1.46035 4.77469 1.30138 4.8919 1.18417C5.00911 1.06696 5.16808 1.00111 5.33384 1.00111Z" fill="#58C38E"/>
</svg>
