<svg width="100" height="28" viewBox="0 0 100 28" fill="none" xmlns="http://www.w3.org/2000/svg">
<g clip-path="url(#clip0_1663_55282)">
<path d="M36.0517 5.21562V9.72196C32.4107 9.72196 29.4593 12.6734 29.4593 16.3144C29.4593 19.9553 32.4107 22.9068 36.0517 22.9068C39.6928 22.9068 42.6442 19.9553 42.6442 16.3144C42.6442 16.1762 42.6385 16.0401 42.6301 15.904H46.7401L46.9492 16.1131C46.9492 22.1319 42.0698 27.0105 36.0517 27.0105C30.033 27.0105 25.1543 22.1319 25.1543 16.1131C25.1543 10.0943 30.033 5.21562 36.0517 5.21562ZM81.0161 7.8064V12.0059H79.965C77.5362 12.0059 75.452 13.8315 75.0533 16.3205C75.008 16.6028 74.9853 16.8894 74.9853 17.1765V26.0336H70.8938V17.1765C70.8938 16.7887 70.9169 16.4022 70.9629 16.0186C71.5219 11.3362 75.3864 7.8064 79.965 7.8064H81.0161ZM4.17239 7.80634V26.0335H0.0816498V7.80634H4.17239ZM11.8703 7.80634L11.8703 8.68998L11.9194 8.66387C12.6163 8.29834 13.3684 8.04308 14.1536 7.91077L14.2479 7.89548C14.6285 7.83606 15.0151 7.80634 15.4033 7.80634C15.7915 7.80634 16.1781 7.83606 16.5584 7.89544C20.0598 8.44002 22.7134 11.3793 22.97 14.8945L22.9749 14.9709L22.9911 14.971V26.0265H18.8995V15.4541C18.8995 14.501 18.5142 13.6161 17.8806 12.9705L17.8141 12.9046C17.3655 12.4709 16.801 12.1538 16.1657 12.0093C15.9163 11.9525 15.6605 11.9239 15.4033 11.9239C15.1461 11.9239 14.8904 11.9526 14.6406 12.0094C13.0528 12.3697 11.9071 13.8105 11.9071 15.4541V25.5411H11.8703L11.8703 26.0272H7.5606V7.80634H11.8703ZM58.2188 7.88409C58.5943 7.88409 58.9696 7.90725 59.3419 7.95343C60.6954 8.1206 61.9732 8.58748 63.0993 9.30864L63.1795 9.36059L63.1985 9.37319L63.1987 8.1596H67.7768V26.0265H63.1987L63.1985 24.5395L63.1799 24.552C62.0878 25.2669 60.8487 25.7406 59.5333 25.9314L59.4346 25.9452L59.3422 25.9571C58.9699 26.0033 58.5946 26.0265 58.2188 26.0265C57.8432 26.0265 57.468 26.0033 57.0957 25.9571C52.5605 25.3969 49.1477 21.5301 49.1477 16.9553C49.1477 12.3808 52.5609 8.51375 57.0955 7.95345C57.4682 7.90725 57.8434 7.88409 58.2188 7.88409ZM99.9901 0V16.9034C99.9901 21.4779 96.5769 25.3449 92.0423 25.9053C91.6698 25.9515 91.2946 25.9746 90.919 25.9746C90.5432 25.9746 90.1679 25.9515 89.7958 25.9053C85.2605 25.345 81.8477 21.4782 81.8477 16.9034C81.8477 12.3289 85.261 8.4619 89.7956 7.9016C90.1682 7.85539 90.5435 7.83222 90.919 7.83222C91.2944 7.83222 91.6696 7.85538 92.0421 7.90157C93.3968 8.06897 94.6751 8.53503 95.8004 9.25501L95.8805 9.30686L95.8987 9.31884V0H99.9901ZM58.2188 11.9755C57.9429 11.9755 57.6683 11.9981 57.3965 12.0432C55.0015 12.4402 53.2391 14.5229 53.2391 16.9553C53.2391 19.3397 54.9335 21.3913 57.2569 21.8425L57.3275 21.8557L57.3965 21.8674C57.6684 21.9124 57.943 21.935 58.2188 21.935C58.4948 21.935 58.7693 21.9124 59.0413 21.8674C61.4366 21.4703 63.1987 19.3881 63.1987 16.9553C63.1987 14.5696 61.5023 12.5174 59.1763 12.0673L59.1057 12.0542L59.0412 12.0432C58.7697 11.9982 58.4945 11.9755 58.2188 11.9755ZM90.9182 11.923C90.6421 11.923 90.3677 11.9455 90.0958 11.9906C87.7008 12.3877 85.9385 14.4703 85.9385 16.9027C85.9385 19.287 87.6329 21.3387 89.9569 21.79L90.0275 21.8032L90.0957 21.8148C90.3679 21.8599 90.6423 21.8825 90.9182 21.8825C91.1941 21.8825 91.4686 21.8599 91.7407 21.8148C94.1366 21.4178 95.8986 19.3355 95.8979 16.9027C95.8979 14.517 94.2017 12.4648 91.8755 12.0147L91.8048 12.0016L91.7406 11.9906C91.469 11.9456 91.1939 11.923 90.9182 11.923ZM37.6696 0.767263L50.274 7.77926L37.6696 14.7913V0.767263ZM2.14562 2.18204C3.33061 2.18204 4.29123 3.14266 4.29123 4.32764C4.29123 5.51264 3.33061 6.47326 2.14562 6.47326C0.960623 6.47326 0 5.51264 0 4.32764C0 3.14266 0.960626 2.18204 2.14562 2.18204Z" fill="white"/>
</g>
<defs>
<clipPath id="clip0_1663_55282">
<rect width="100" height="27.0531" fill="white"/>
</clipPath>
</defs>
</svg>
